<mxfile host="app.diagrams.net" modified="2024-04-16T05:58:15.402Z" agent="Mozilla/5.0 (Windows NT 10.0; Win64; x64) AppleWebKit/537.36 (KHTML, like Gecko) Chrome/123.0.0.0 Safari/537.36" version="24.2.3" etag="ZbkTXjD5c-yhnxiD3k--" type="github">
  <diagram name="第 1 页" id="EmLoAK-EGy1GO7E1VoG5">
    <mxGraphModel>
      <root>
        <mxCell id="0" />
        <mxCell id="1" parent="0" />
      </root>
    </mxGraphModel>
  </diagram>
</mxfile>
